<svg xmlns="http://www.w3.org/2000/svg" version="1.1" xmlns:xlink="http://www.w3.org/1999/xlink" xmlns:svgjs="http://svgjs.dev/svgjs" viewBox="0 0 800 800" opacity="0.54" width="800" height="800"><g stroke-width="0.5" stroke="hsla(0, 0%, 100%, 1.00)" fill="none"><rect width="57.142857142857146" height="1" x="-28.571428571428573" y="-0.5" stroke="none" fill="hsla(0, 0%, 100%, 1.00)" rx="0.5"></rect><rect width="1" height="57.142857142857146" x="-0.5" y="-28.571428571428573" stroke="none" fill="hsla(0, 0%, 100%, 1.00)" rx="0.5"></rect><rect width="57.142857142857146" height="1" x="85.71428571428572" y="-0.5" stroke="none" fill="hsla(0, 0%, 100%, 1.00)" rx="0.5"></rect><rect width="1" height="57.142857142857146" x="113.78571428571429" y="-28.571428571428573" stroke="none" fill="hsla(0, 0%, 100%, 1.00)" rx="0.5"></rect><rect width="57.142857142857146" height="1" x="200" y="-0.5" stroke="none" fill="hsla(0, 0%, 100%, 1.00)" rx="0.5"></rect><rect width="1" height="57.142857142857146" x="228.07142857142858" y="-28.571428571428573" stroke="none" fill="hsla(0, 0%, 100%, 1.00)" rx="0.5"></rect><rect width="57.142857142857146" height="1" x="314.28571428571433" y="-0.5" stroke="none" fill="hsla(0, 0%, 100%, 1.00)" rx="0.5"></rect><rect width="1" height="57.142857142857146" x="342.3571428571429" y="-28.571428571428573" stroke="none" fill="hsla(0, 0%, 100%, 1.00)" rx="0.5"></rect><rect width="57.142857142857146" height="1" x="428.5714285714286" y="-0.5" stroke="none" fill="hsla(0, 0%, 100%, 1.00)" rx="0.5"></rect><rect width="1" height="57.142857142857146" x="456.64285714285717" y="-28.571428571428573" stroke="none" fill="hsla(0, 0%, 100%, 1.00)" rx="0.5"></rect><rect width="57.142857142857146" height="1" x="542.8571428571429" y="-0.5" stroke="none" fill="hsla(0, 0%, 100%, 1.00)" rx="0.5"></rect><rect width="1" height="57.142857142857146" x="570.9285714285714" y="-28.571428571428573" stroke="none" fill="hsla(0, 0%, 100%, 1.00)" rx="0.5"></rect><rect width="57.142857142857146" height="1" x="657.1428571428572" y="-0.5" stroke="none" fill="hsla(0, 0%, 100%, 1.00)" rx="0.5"></rect><rect width="1" height="57.142857142857146" x="685.2142857142858" y="-28.571428571428573" stroke="none" fill="hsla(0, 0%, 100%, 1.00)" rx="0.5"></rect><rect width="57.142857142857146" height="1" x="771.4285714285716" y="-0.5" stroke="none" fill="hsla(0, 0%, 100%, 1.00)" rx="0.5"></rect><rect width="1" height="57.142857142857146" x="799.5000000000001" y="-28.571428571428573" stroke="none" fill="hsla(0, 0%, 100%, 1.00)" rx="0.5"></rect><rect width="57.142857142857146" height="1" x="-28.571428571428573" y="159.5" stroke="none" fill="hsla(0, 0%, 100%, 1.00)" rx="0.5"></rect><rect width="1" height="57.142857142857146" x="-0.5" y="131.42857142857142" stroke="none" fill="hsla(0, 0%, 100%, 1.00)" rx="0.5"></rect><rect width="57.142857142857146" height="1" x="85.71428571428572" y="159.5" stroke="none" fill="hsla(0, 0%, 100%, 1.00)" rx="0.5"></rect><rect width="1" height="57.142857142857146" x="113.78571428571429" y="131.42857142857142" stroke="none" fill="hsla(0, 0%, 100%, 1.00)" rx="0.5"></rect><rect width="57.142857142857146" height="1" x="200" y="159.5" stroke="none" fill="hsla(0, 0%, 100%, 1.00)" rx="0.5"></rect><rect width="1" height="57.142857142857146" x="228.07142857142858" y="131.42857142857142" stroke="none" fill="hsla(0, 0%, 100%, 1.00)" rx="0.5"></rect><rect width="57.142857142857146" height="1" x="314.28571428571433" y="159.5" stroke="none" fill="hsla(0, 0%, 100%, 1.00)" rx="0.5"></rect><rect width="1" height="57.142857142857146" x="342.3571428571429" y="131.42857142857142" stroke="none" fill="hsla(0, 0%, 100%, 1.00)" rx="0.5"></rect><rect width="57.142857142857146" height="1" x="428.5714285714286" y="159.5" stroke="none" fill="hsla(0, 0%, 100%, 1.00)" rx="0.5"></rect><rect width="1" height="57.142857142857146" x="456.64285714285717" y="131.42857142857142" stroke="none" fill="hsla(0, 0%, 100%, 1.00)" rx="0.5"></rect><rect width="57.142857142857146" height="1" x="542.8571428571429" y="159.5" stroke="none" fill="hsla(0, 0%, 100%, 1.00)" rx="0.5"></rect><rect width="1" height="57.142857142857146" x="570.9285714285714" y="131.42857142857142" stroke="none" fill="hsla(0, 0%, 100%, 1.00)" rx="0.5"></rect><rect width="57.142857142857146" height="1" x="657.1428571428572" y="159.5" stroke="none" fill="hsla(0, 0%, 100%, 1.00)" rx="0.5"></rect><rect width="1" height="57.142857142857146" x="685.2142857142858" y="131.42857142857142" stroke="none" fill="hsla(0, 0%, 100%, 1.00)" rx="0.5"></rect><rect width="57.142857142857146" height="1" x="771.4285714285716" y="159.5" stroke="none" fill="hsla(0, 0%, 100%, 1.00)" rx="0.5"></rect><rect width="1" height="57.142857142857146" x="799.5000000000001" y="131.42857142857142" stroke="none" fill="hsla(0, 0%, 100%, 1.00)" rx="0.5"></rect><rect width="57.142857142857146" height="1" x="-28.571428571428573" y="319.5" stroke="none" fill="hsla(0, 0%, 100%, 1.00)" rx="0.5"></rect><rect width="1" height="57.142857142857146" x="-0.5" y="291.42857142857144" stroke="none" fill="hsla(0, 0%, 100%, 1.00)" rx="0.5"></rect><rect width="57.142857142857146" height="1" x="85.71428571428572" y="319.5" stroke="none" fill="hsla(0, 0%, 100%, 1.00)" rx="0.5"></rect><rect width="1" height="57.142857142857146" x="113.78571428571429" y="291.42857142857144" stroke="none" fill="hsla(0, 0%, 100%, 1.00)" rx="0.5"></rect><rect width="57.142857142857146" height="1" x="200" y="319.5" stroke="none" fill="hsla(0, 0%, 100%, 1.00)" rx="0.5"></rect><rect width="1" height="57.142857142857146" x="228.07142857142858" y="291.42857142857144" stroke="none" fill="hsla(0, 0%, 100%, 1.00)" rx="0.5"></rect><rect width="57.142857142857146" height="1" x="314.28571428571433" y="319.5" stroke="none" fill="hsla(0, 0%, 100%, 1.00)" rx="0.5"></rect><rect width="1" height="57.142857142857146" x="342.3571428571429" y="291.42857142857144" stroke="none" fill="hsla(0, 0%, 100%, 1.00)" rx="0.5"></rect><rect width="57.142857142857146" height="1" x="428.5714285714286" y="319.5" stroke="none" fill="hsla(0, 0%, 100%, 1.00)" rx="0.5"></rect><rect width="1" height="57.142857142857146" x="456.64285714285717" y="291.42857142857144" stroke="none" fill="hsla(0, 0%, 100%, 1.00)" rx="0.5"></rect><rect width="57.142857142857146" height="1" x="542.8571428571429" y="319.5" stroke="none" fill="hsla(0, 0%, 100%, 1.00)" rx="0.5"></rect><rect width="1" height="57.142857142857146" x="570.9285714285714" y="291.42857142857144" stroke="none" fill="hsla(0, 0%, 100%, 1.00)" rx="0.5"></rect><rect width="57.142857142857146" height="1" x="657.1428571428572" y="319.5" stroke="none" fill="hsla(0, 0%, 100%, 1.00)" rx="0.5"></rect><rect width="1" height="57.142857142857146" x="685.2142857142858" y="291.42857142857144" stroke="none" fill="hsla(0, 0%, 100%, 1.00)" rx="0.5"></rect><rect width="57.142857142857146" height="1" x="771.4285714285716" y="319.5" stroke="none" fill="hsla(0, 0%, 100%, 1.00)" rx="0.5"></rect><rect width="1" height="57.142857142857146" x="799.5000000000001" y="291.42857142857144" stroke="none" fill="hsla(0, 0%, 100%, 1.00)" rx="0.5"></rect><rect width="57.142857142857146" height="1" x="-28.571428571428573" y="479.5" stroke="none" fill="hsla(0, 0%, 100%, 1.00)" rx="0.5"></rect><rect width="1" height="57.142857142857146" x="-0.5" y="451.42857142857144" stroke="none" fill="hsla(0, 0%, 100%, 1.00)" rx="0.5"></rect><rect width="57.142857142857146" height="1" x="85.71428571428572" y="479.5" stroke="none" fill="hsla(0, 0%, 100%, 1.00)" rx="0.5"></rect><rect width="1" height="57.142857142857146" x="113.78571428571429" y="451.42857142857144" stroke="none" fill="hsla(0, 0%, 100%, 1.00)" rx="0.5"></rect><rect width="57.142857142857146" height="1" x="200" y="479.5" stroke="none" fill="hsla(0, 0%, 100%, 1.00)" rx="0.5"></rect><rect width="1" height="57.142857142857146" x="228.07142857142858" y="451.42857142857144" stroke="none" fill="hsla(0, 0%, 100%, 1.00)" rx="0.5"></rect><rect width="57.142857142857146" height="1" x="314.28571428571433" y="479.5" stroke="none" fill="hsla(0, 0%, 100%, 1.00)" rx="0.5"></rect><rect width="1" height="57.142857142857146" x="342.3571428571429" y="451.42857142857144" stroke="none" fill="hsla(0, 0%, 100%, 1.00)" rx="0.5"></rect><rect width="57.142857142857146" height="1" x="428.5714285714286" y="479.5" stroke="none" fill="hsla(0, 0%, 100%, 1.00)" rx="0.5"></rect><rect width="1" height="57.142857142857146" x="456.64285714285717" y="451.42857142857144" stroke="none" fill="hsla(0, 0%, 100%, 1.00)" rx="0.5"></rect><rect width="57.142857142857146" height="1" x="542.8571428571429" y="479.5" stroke="none" fill="hsla(0, 0%, 100%, 1.00)" rx="0.5"></rect><rect width="1" height="57.142857142857146" x="570.9285714285714" y="451.42857142857144" stroke="none" fill="hsla(0, 0%, 100%, 1.00)" rx="0.5"></rect><rect width="57.142857142857146" height="1" x="657.1428571428572" y="479.5" stroke="none" fill="hsla(0, 0%, 100%, 1.00)" rx="0.5"></rect><rect width="1" height="57.142857142857146" x="685.2142857142858" y="451.42857142857144" stroke="none" fill="hsla(0, 0%, 100%, 1.00)" rx="0.5"></rect><rect width="57.142857142857146" height="1" x="771.4285714285716" y="479.5" stroke="none" fill="hsla(0, 0%, 100%, 1.00)" rx="0.5"></rect><rect width="1" height="57.142857142857146" x="799.5000000000001" y="451.42857142857144" stroke="none" fill="hsla(0, 0%, 100%, 1.00)" rx="0.5"></rect><rect width="57.142857142857146" height="1" x="-28.571428571428573" y="639.5" stroke="none" fill="hsla(0, 0%, 100%, 1.00)" rx="0.5"></rect><rect width="1" height="57.142857142857146" x="-0.5" y="611.4285714285714" stroke="none" fill="hsla(0, 0%, 100%, 1.00)" rx="0.5"></rect><rect width="57.142857142857146" height="1" x="85.71428571428572" y="639.5" stroke="none" fill="hsla(0, 0%, 100%, 1.00)" rx="0.5"></rect><rect width="1" height="57.142857142857146" x="113.78571428571429" y="611.4285714285714" stroke="none" fill="hsla(0, 0%, 100%, 1.00)" rx="0.5"></rect><rect width="57.142857142857146" height="1" x="200" y="639.5" stroke="none" fill="hsla(0, 0%, 100%, 1.00)" rx="0.5"></rect><rect width="1" height="57.142857142857146" x="228.07142857142858" y="611.4285714285714" stroke="none" fill="hsla(0, 0%, 100%, 1.00)" rx="0.5"></rect><rect width="57.142857142857146" height="1" x="314.28571428571433" y="639.5" stroke="none" fill="hsla(0, 0%, 100%, 1.00)" rx="0.5"></rect><rect width="1" height="57.142857142857146" x="342.3571428571429" y="611.4285714285714" stroke="none" fill="hsla(0, 0%, 100%, 1.00)" rx="0.5"></rect><rect width="57.142857142857146" height="1" x="428.5714285714286" y="639.5" stroke="none" fill="hsla(0, 0%, 100%, 1.00)" rx="0.5"></rect><rect width="1" height="57.142857142857146" x="456.64285714285717" y="611.4285714285714" stroke="none" fill="hsla(0, 0%, 100%, 1.00)" rx="0.5"></rect><rect width="57.142857142857146" height="1" x="542.8571428571429" y="639.5" stroke="none" fill="hsla(0, 0%, 100%, 1.00)" rx="0.5"></rect><rect width="1" height="57.142857142857146" x="570.9285714285714" y="611.4285714285714" stroke="none" fill="hsla(0, 0%, 100%, 1.00)" rx="0.5"></rect><rect width="57.142857142857146" height="1" x="657.1428571428572" y="639.5" stroke="none" fill="hsla(0, 0%, 100%, 1.00)" rx="0.5"></rect><rect width="1" height="57.142857142857146" x="685.2142857142858" y="611.4285714285714" stroke="none" fill="hsla(0, 0%, 100%, 1.00)" rx="0.5"></rect><rect width="57.142857142857146" height="1" x="771.4285714285716" y="639.5" stroke="none" fill="hsla(0, 0%, 100%, 1.00)" rx="0.5"></rect><rect width="1" height="57.142857142857146" x="799.5000000000001" y="611.4285714285714" stroke="none" fill="hsla(0, 0%, 100%, 1.00)" rx="0.5"></rect><rect width="57.142857142857146" height="1" x="-28.571428571428573" y="799.5" stroke="none" fill="hsla(0, 0%, 100%, 1.00)" rx="0.5"></rect><rect width="1" height="57.142857142857146" x="-0.5" y="771.4285714285714" stroke="none" fill="hsla(0, 0%, 100%, 1.00)" rx="0.5"></rect><rect width="57.142857142857146" height="1" x="85.71428571428572" y="799.5" stroke="none" fill="hsla(0, 0%, 100%, 1.00)" rx="0.5"></rect><rect width="1" height="57.142857142857146" x="113.78571428571429" y="771.4285714285714" stroke="none" fill="hsla(0, 0%, 100%, 1.00)" rx="0.5"></rect><rect width="57.142857142857146" height="1" x="200" y="799.5" stroke="none" fill="hsla(0, 0%, 100%, 1.00)" rx="0.5"></rect><rect width="1" height="57.142857142857146" x="228.07142857142858" y="771.4285714285714" stroke="none" fill="hsla(0, 0%, 100%, 1.00)" rx="0.5"></rect><rect width="57.142857142857146" height="1" x="314.28571428571433" y="799.5" stroke="none" fill="hsla(0, 0%, 100%, 1.00)" rx="0.5"></rect><rect width="1" height="57.142857142857146" x="342.3571428571429" y="771.4285714285714" stroke="none" fill="hsla(0, 0%, 100%, 1.00)" rx="0.5"></rect><rect width="57.142857142857146" height="1" x="428.5714285714286" y="799.5" stroke="none" fill="hsla(0, 0%, 100%, 1.00)" rx="0.5"></rect><rect width="1" height="57.142857142857146" x="456.64285714285717" y="771.4285714285714" stroke="none" fill="hsla(0, 0%, 100%, 1.00)" rx="0.5"></rect><rect width="57.142857142857146" height="1" x="542.8571428571429" y="799.5" stroke="none" fill="hsla(0, 0%, 100%, 1.00)" rx="0.5"></rect><rect width="1" height="57.142857142857146" x="570.9285714285714" y="771.4285714285714" stroke="none" fill="hsla(0, 0%, 100%, 1.00)" rx="0.5"></rect><rect width="57.142857142857146" height="1" x="657.1428571428572" y="799.5" stroke="none" fill="hsla(0, 0%, 100%, 1.00)" rx="0.5"></rect><rect width="1" height="57.142857142857146" x="685.2142857142858" y="771.4285714285714" stroke="none" fill="hsla(0, 0%, 100%, 1.00)" rx="0.5"></rect><rect width="57.142857142857146" height="1" x="771.4285714285716" y="799.5" stroke="none" fill="hsla(0, 0%, 100%, 1.00)" rx="0.5"></rect><rect width="1" height="57.142857142857146" x="799.5000000000001" y="771.4285714285714" stroke="none" fill="hsla(0, 0%, 100%, 1.00)" rx="0.5"></rect></g></svg>